<?xml version="1.0" encoding="UTF-8"?>
<!-- Generator: Adobe Illustrator 14.0.0, SVG Export Plug-In . SVG Version: 6.00 Build 43363)  -->
<!DOCTYPE svg PUBLIC "-//W3C//DTD SVG 1.1//EN" "http://www.w3.org/Graphics/SVG/1.1/DTD/svg11.dtd">
<svg version="1.1" id="Layer_1" xmlns="http://www.w3.org/2000/svg" xmlns:xlink="http://www.w3.org/1999/xlink" x="0px" y="0px" width="232.441px" height="232.441px" viewBox="13.779 13.946 232.441 232.441" enable-background="new 13.779 13.946 232.441 232.441" xml:space="preserve">
<g>
	<path fill="#000014" d="M129.998,243.517c-0.314,0-0.631-0.067-0.923-0.2L17.89,191.905c-0.779-0.357-1.276-1.138-1.276-1.995   V70.422c0-0.858,0.497-1.636,1.276-1.996l111.185-51.408c0.586-0.272,1.261-0.272,1.848,0l111.186,51.408   c0.777,0.36,1.277,1.138,1.277,1.996V189.91c0,0.857-0.5,1.638-1.277,1.995l-111.186,51.412   C130.63,243.45,130.314,243.517,129.998,243.517"/>
	<path fill="none" stroke="#000014" stroke-miterlimit="10" d="M129.998,243.552c-0.314,0-0.631-0.067-0.923-0.203L17.89,191.924   c-0.779-0.358-1.276-1.139-1.276-1.996V70.404c0-0.858,0.497-1.636,1.276-1.997l111.185-51.423c0.586-0.272,1.261-0.272,1.848,0   l111.186,51.423c0.777,0.36,1.277,1.139,1.277,1.997v119.524c0,0.857-0.5,1.638-1.277,1.996l-111.186,51.425   C130.63,243.485,130.314,243.552,129.998,243.552z"/>
	<path fill="#FFFFFF" d="M98.261,194.396h-9.859c-1.442,0-2.612-1.169-2.612-2.612c0-1.442,1.17-2.612,2.612-2.612h7.246V77.915   l-8.59-5.153c-1.237-0.742-1.639-2.347-0.896-3.585c0.741-1.236,2.346-1.638,3.583-0.896l9.86,5.915   c0.786,0.472,1.268,1.322,1.268,2.24v115.348C100.874,193.227,99.704,194.396,98.261,194.396"/>
	<path fill="#FFFFFF" d="M116.139,194.396h-9.859c-1.443,0-2.613-1.169-2.613-2.612V76.436c0-1.158,0.762-2.177,1.87-2.504   l26.619-7.887c0.483-0.144,1.001-0.144,1.484,0l26.618,7.887c1.108,0.327,1.871,1.347,1.871,2.504v45.843   c0,1.115-0.708,2.108-1.764,2.471L116.1,139.979c-1.368,0.469-2.852-0.254-3.32-1.619c-0.47-1.365,0.256-2.851,1.618-3.319   l42.507-14.625v-42.03l-24.007-7.112l-24.007,7.112v110.787h7.248c1.442,0,2.612,1.17,2.612,2.611   C118.752,193.227,117.582,194.396,116.139,194.396"/>
	<path fill="#FFFFFF" d="M171.594,194.396H160.01c-1.117,0-2.108-0.709-2.472-1.764L136.14,130.32   c-0.469-1.365,0.258-2.851,1.623-3.32c1.367-0.468,2.85,0.258,3.318,1.624l20.79,60.548h9.722c1.441,0,2.61,1.17,2.61,2.612   C174.205,193.227,173.036,194.396,171.594,194.396"/>
	<path fill="#FFFFFF" d="M151.827,194.396h-9.861c-1.443,0-2.613-1.169-2.613-2.612c0-1.442,1.17-2.612,2.613-2.612h6.201   l-19.346-56.333c-0.469-1.365,0.258-2.851,1.622-3.319c1.369-0.469,2.851,0.258,3.318,1.623l20.535,59.793   c0.272,0.799,0.146,1.682-0.346,2.367C153.463,193.989,152.671,194.396,151.827,194.396"/>
	<path fill="#FFFFFF" d="M151.827,127.536c-1.443,0-2.613-1.169-2.613-2.612V74.156c0-1.443,1.17-2.612,2.613-2.612   c1.442,0,2.612,1.169,2.612,2.612v50.768C154.439,126.367,153.269,127.536,151.827,127.536"/>
</g>
</svg>